<svg xmlns="http://www.w3.org/2000/svg" viewBox="0 0 14 16"><path d="M24,25.79V15.29a.75.75,0,0,0-.74-.75H13a3,3,0,0,0-3,3v10a3,3,0,0,0,3,3H23.2A.74.74,0,0,0,24,29.8h0v-.5a.76.76,0,0,0-.27-.58,7.07,7.07,0,0,1,0-2.34A.75.75,0,0,0,24,25.79Zm-2.08,2.75H13a1,1,0,1,1,0-2h8.92A11.13,11.13,0,0,0,21.87,28.54Z" transform="translate(-9.95 -14.54)" fill="currentColor"/><path d="M20.29,17.57a.38.38,0,0,0-.54,0l-3.38,3.34-1.46-1.47a.38.38,0,0,0-.54,0l-.9.9a.4.4,0,0,0,0,.54l2.63,2.65a.4.4,0,0,0,.54,0L21.18,19a.38.38,0,0,0,0-.54l-.89-.9Z" transform="translate(-9.95 -14.54)" fill="#fcfcfc"/></svg>
