<?xml version="1.0" encoding="utf-8"?>
<!-- Generator: Adobe Illustrator 25.3.1, SVG Export Plug-In . SVG Version: 6.00 Build 0)  -->
<svg version="1.1" id="Layer_1" xmlns="http://www.w3.org/2000/svg" xmlns:xlink="http://www.w3.org/1999/xlink" x="0px" y="0px"
	 viewBox="0 0 21.3 16" style="enable-background:new 0 0 21.3 16;" xml:space="preserve">
<path fill="currentColor" d="M19.3,2.7h-8L9.1,0.4C8.8,0.1,8.5,0,8.1,0H2C0.9,0,0,0.9,0,2v12c0,1.1,0.9,2,2,2h17.3c1.1,0,2-0.9,2-2V4.7
	C21.3,3.6,20.4,2.7,19.3,2.7z"/>
<path fill="#FCFCFC" d="M2.7,7.6h11.6c0.2,0,0.4-0.2,0.4-0.4V6c0-0.2-0.2-0.4-0.4-0.4H2.7C2.5,5.6,2.3,5.8,2.3,6v1.2
	C2.3,7.4,2.5,7.6,2.7,7.6z"/>
</svg>
