<svg xmlns="http://www.w3.org/2000/svg" viewBox="0 0 18 12.01">
  <path
    d="M20.55,25H34.44V23.5A.5.5,0,0,1,35,23a.52.52,0,0,1,.35.14l2.54,2.5a.5.5,0,0,1,0,.7h0l-2.54,2.5a.51.51,0,0,1-.72,0,.47.47,0,0,1-.15-.35V27H20.55a.53.53,0,0,1-.55-.5v-1A.53.53,0,0,1,20.55,25Z"
    transform="translate(-20 -20)" fill="currentColor"/>
  <path d="M27,20h-6.4a.53.53,0,0,0-.55.5v1a.53.53,0,0,0,.55.5H27a.53.53,0,0,0,.55-.5v-1A.52.52,0,0,0,27,20Z"
        transform="translate(-20 -20)" fill="currentColor"/>
  <path d="M27,30h-6.4a.53.53,0,0,0-.55.5v1a.53.53,0,0,0,.55.5H27a.52.52,0,0,0,.55-.5v-1A.53.53,0,0,0,27,30Z"
        transform="translate(-20 -20)" fill="currentColor"/>
</svg>
