<svg xmlns="http://www.w3.org/2000/svg" viewBox="0 0 18 12">
  <path d="M17.55,10H6.43a.47.47,0,0,0-.43.5v1a.46.46,0,0,0,.43.5H17.55a.48.48,0,0,0,.43-.5v-1A.48.48,0,0,0,17.55,10Z" transform="translate(0)" fill="currentColor"/>
  <path d="M17.45,5H3.57V3.5a.51.51,0,0,0-.87-.35L.15,5.65a.48.48,0,0,0,0,.69h0L2.7,8.85a.52.52,0,0,0,.72,0,.55.55,0,0,0,.15-.36V7H17.45A.53.53,0,0,0,18,6.5v-1A.53.53,0,0,0,17.45,5Z" transform="translate(0)" fill="currentColor"/>
  <path d="M17.55,0H6.43A.46.46,0,0,0,6,.5v1a.46.46,0,0,0,.43.5H17.55A.48.48,0,0,0,18,1.5V.5A.48.48,0,0,0,17.55,0Z" transform="translate(0)" fill="currentColor"/>
</svg>
